<svg id="Camada_1" data-name="Camada 1" xmlns="http://www.w3.org/2000/svg" viewBox="0 0 1725.63 469.48"><defs><style>.cls-1{fill:#0092ff;}.cls-2{fill:#ac4aba;}</style></defs><rect class="cls-1" x="199.96" y="145.66" width="76.5" height="178.5"/><path class="cls-1" d="M7247.88,7277.18a16,16,0,0,1,.75,2.76,37.54,37.54,0,0,1,.1,4.11q0,50.52,0,101c0,1.72-.07,3.44-.24,5.14a2.57,2.57,0,0,1-2.34,2.37,14.09,14.09,0,0,1-2.05.2c-1,0-2.06,0-3.09,0q-150,0-300,0c-16.2,0-31.29-4.11-44.8-13.25-17.64-11.94-28.61-28.42-32.83-49.28A116.17,116.17,0,0,1,6862,7318c-.1-1,0-2.06,0-3.09V7083.47a77.9,77.9,0,0,1,1.26-15.38c6.31-31.78,32.46-56.32,63.05-61a74.74,74.74,0,0,1,11.27-.95q84.81-.09,169.61,0c6.2,0,6.42.21,6.43,6.35q0,51.3,0,102.58c0,6.24-.34,6.54-6.86,6.54q-51.81,0-103.62,0c-5.67,0-11.34,0-17,0-6.33,0-6.51.24-6.56,6.78,0,2.57-.05,5.15,0,7.73,0,1.34.3,2.68.48,4.2a24.64,24.64,0,0,0,3.61.81c1.88.14,3.77.07,5.66.07h205.19c2.06,0,4.12.05,6.17.17a2.42,2.42,0,0,1,2.41,2.26,31.37,31.37,0,0,1,.23,4.11q0,51,0,102.07a33.5,33.5,0,0,1-.13,3.61c-.23,2.18-1,3-3.32,3.14-2,.16-4.12.12-6.18.12H6988.53c-2.06,0-4.12,0-6.17.19a2.47,2.47,0,0,0-2.6,2.64q-.19,6.95,0,13.91a2.46,2.46,0,0,0,2.59,2.66c2,.18,4.11.19,6.17.19H7172q34.55,0,69.08,0C7243.29,7276.34,7245.57,7275.92,7247.88,7277.18Z" transform="translate(-6337.04 -6965.84)"/><path class="cls-1" d="M7675.94,7233.67q0-75,0-150a75.44,75.44,0,0,1,11.14-40.21c11.78-19.17,28.75-31,50.67-35.89a54.37,54.37,0,0,1,12.78-1.41c1.89,0,3.78,0,5.68,0h226.32a88.48,88.48,0,0,1,15.92.94c20.39,3.71,36.87,13.74,49.15,30.4a75.18,75.18,0,0,1,15.05,45.71q0,83.52,0,167c0,1.54,0,3.09-.12,4.63a2.55,2.55,0,0,1-2.55,2.71,35.23,35.23,0,0,1-4.11.18q-51,0-102.08,0c-6.53,0-6.63-.11-6.63-6.64q0-59.28,0-118.56c0-1.89,0-3.79-.11-5.67-.15-2-.9-3-2.81-3q-7-.17-13.91,0c-1.67,0-2.47.93-2.6,2.63-.17,2.05-.17,4.11-.17,6.17q0,102.85,0,205.69c0,1.89,0,3.79-.08,5.67-.14,2.36-.85,3.12-3.07,3.32-1.36.13-2.75.11-4.12.11q-50.52,0-101.05,0c-7.14,0-7.17,0-7.17-7.13q0-103.62,0-207.24c0-2.06,0-4.13-.1-6.18s-.88-3-2.77-3.05c-4.64-.12-9.28-.11-13.91,0-1.7,0-2.5.91-2.64,2.6-.17,2.05-.17,4.11-.17,6.17q0,113.94,0,227.86c0,8.76,0,17.53,0,26.29,0,5.78-.27,6-6.18,6.05q-52.08,0-104.14,0c-6,0-6.18-.18-6.18-6.57q0-47.42,0-94.85v-57.74Z" transform="translate(-6337.04 -6965.84)"/><path class="cls-1" d="M7539.26,7274a19.66,19.66,0,0,0,.49-2.78c.09-1.88.05-3.78.05-5.67v-250c0-1.89-.05-3.79.07-5.67.17-2.84.88-3.48,3.84-3.67,1-.07,2.07-.05,3.1-.05h102.6a39.67,39.67,0,0,1,4.63.26,2.31,2.31,0,0,1,2,2,13,13,0,0,1,.21,2.05c0,1.2,0,2.41,0,3.61q0,150.56,0,301.1a75.49,75.49,0,0,1-6.4,31.07,77.29,77.29,0,0,1-33.4,36.71c-12.13,6.86-25.29,9.82-39.07,9.84q-114.47.12-228.93,0c-18.65,0-35.6-5.44-50.13-17.38-15.66-12.88-25.07-29.36-28-49.51a96,96,0,0,1-.86-13.87q0-80.94,0-161.89c0-2.06,0-4.13.18-6.18.14-1.69.93-2.42,2.65-2.6a37.55,37.55,0,0,1,4.11-.15h101.58c6.88,0,7,.08,7,6.85q0,59.3,0,118.58c0,1.89,0,3.78.11,5.67s.88,2.71,2.49,2.75q7.2.15,14.41,0c1.61,0,2.35-1,2.47-2.76s.11-3.78.11-5.67q0-102.85,0-205.71c0-2.06,0-4.13.1-6.18.16-2.25.94-2.94,3.27-3.14,1.2-.11,2.41-.09,3.61-.09q50.79,0,101.58,0a39.62,39.62,0,0,1,4.62.25,2.29,2.29,0,0,1,2.06,2,17,17,0,0,1,.23,2.57c0,1.71,0,3.43,0,5.15q0,102.6,0,205.2,0,3.09.21,6.17a2.12,2.12,0,0,0,1.91,2.13c5.45.26,10.93,1,16.34-.47C7538.81,7274.48,7538.92,7274.3,7539.26,7274Z" transform="translate(-6337.04 -6965.84)"/><path class="cls-1" d="M7327.6,7006.13q25.26,0,50.52,0c6.88,0,7,.08,7,6.85q0,50.51,0,101c0,6.44-.12,6.56-6.7,6.56q-51,0-102.08,0c-6.63,0-6.69-.06-6.7-6.56q0-50.52,0-101a37.64,37.64,0,0,1,.17-4.12,2.56,2.56,0,0,1,2.67-2.59c1.71-.15,3.43-.14,5.15-.14Z" transform="translate(-6337.04 -6965.84)"/><path class="cls-1" d="M8005.18,7278.38q25.26,0,50.52,0c6.87,0,6.95.08,6.95,6.86q0,50.52,0,101c0,6.44-.11,6.55-6.72,6.55q-51,0-102.07,0c-6.62,0-6.69-.07-6.69-6.57q0-50.52,0-101a37.56,37.56,0,0,1,.17-4.11,2.55,2.55,0,0,1,2.68-2.58c1.71-.15,3.43-.15,5.15-.15Q7980.18,7278.37,8005.18,7278.38Z" transform="translate(-6337.04 -6965.84)"/><path class="cls-1" d="M7135,7120.56c-1-1.64-.75-3.39-.75-5.09q0-51.53,0-103.05c0-.85,0-1.72.07-2.57.24-2.83.89-3.46,3.88-3.66,1.2-.09,2.41-.06,3.61-.06h99.45c1.71,0,3.43.08,5.13.24a2.21,2.21,0,0,1,2,2,44,44,0,0,1,.27,5.13q0,31.43,0,62.86,0,18.81,0,37.61c0,7.55-.06,7.61-7.34,7.62q-50,0-100,0C7139.25,7121.6,7136.93,7122.1,7135,7120.56Z" transform="translate(-6337.04 -6965.84)"/><path class="cls-2" d="M6682.73,7258.21c-.95-.63-1.67-1.16-2.43-1.62q-50.23-30.87-100.49-61.68a3.51,3.51,0,0,1-2-3.41c0-17.66-.14-35.32-.24-53q-.12-22.07-.27-44.12c0-3.22-.08-6.43-.11-9.65,0-.84,0-1.68,0-2.39l.43-.2c.06,0,.14-.06.19,0,.58.28,1.18.55,1.74.88l223,128.32v92.25a2.67,2.67,0,0,0,0,.4c.23,1.48-.36,2.35-1.72,3.11-6.53,3.64-13,7.41-19.47,11.14l-201.73,115.85c-.66.38-1.34.72-2.32,1.24-.06-1.2-.15-2.09-.15-3V7326.18a13.87,13.87,0,0,0,0-1.58,2.78,2.78,0,0,1,1.64-3c4.24-2.5,8.42-5.1,12.63-7.66q44.28-27,88.57-54C6680.87,7259.44,6681.68,7258.89,6682.73,7258.21Z" transform="translate(-6337.04 -6965.84)"/><path class="cls-2" d="M6562.32,7319c-1.58-.4-221.8-127-225.24-129.5v-2.05q0-45.1,0-90.21a3.22,3.22,0,0,1,1.88-3.22q95.91-55.08,191.8-110.23,14.58-8.4,29.17-16.79c.67-.38,1.36-.73,2.24-1.19.11.61.21,1,.25,1.44s0,.92,0,1.38q0,53.48,0,107c0,3.51.3,2.66-2.39,4.3q-50.49,30.81-101,61.59c-.61.37-1.2.78-1.83,1.19.23,1,1.07,1.17,1.7,1.55q13.57,8.35,27.18,16.67,37,22.66,74.05,45.31a3.34,3.34,0,0,1,1.81,3.28c0,11.36.1,22.72.14,34.08q.15,36.52.28,73.07Z" transform="translate(-6337.04 -6965.84)"/></svg>